<svg width="18" height="17" viewBox="0 0 18 17" fill="none" xmlns="http://www.w3.org/2000/svg">
<path d="M15.096 17H6.096C5.648 17 5.32 16.816 5.112 16.448L1.104 9.416C0.896 9.032 0.896 8.656 1.104 8.288L5.136 1.256C5.36 0.872 5.688 0.68 6.12 0.68H15.264C15.808 0.68 16.08 0.952 16.08 1.496V3.464C16.08 4.008 15.808 4.28 15.264 4.28H7.776L5.16 8.816L7.776 13.376H13.536V9.512C13.536 8.952 13.816 8.672 14.376 8.672H16.68C17.24 8.672 17.52 8.952 17.52 9.512V14.24C17.52 14.64 17.384 14.984 17.112 15.272L16.104 16.376C15.72 16.792 15.384 17 15.096 17Z" fill="#FFE587"/>
</svg>
